# Blender 3.3.1
# www.blender.org
mtllib Castle.mtl
o Cone
v 0.033463 -0.124947 -1.138156
v 0.228553 -0.124947 -1.118941
v 0.416146 -0.124947 -1.062036
v 0.589033 -0.124947 -0.969626
v 0.740570 -0.124947 -0.845263
v 0.864933 -0.124947 -0.693726
v 0.957343 -0.124947 -0.520840
v 1.014248 -0.124947 -0.333246
v 1.033463 -0.124947 -0.138156
v 1.014248 -0.124947 0.056934
v 0.957343 -0.124947 0.244527
v 0.864933 -0.124947 0.417414
v 0.740570 -0.124947 0.568951
v 0.589033 -0.124947 0.693313
v 0.416146 -0.124947 0.785723
v 0.228553 -0.124947 0.842629
v 0.033463 -0.124947 0.861844
v -0.161627 -0.124947 0.842629
v -0.349220 -0.124947 0.785723
v -0.522107 -0.124947 0.693313
v -0.673644 -0.124947 0.568951
v -0.798007 -0.124947 0.417414
v -0.890417 -0.124947 0.244527
v -0.947322 -0.124947 0.056934
v -0.966537 -0.124947 -0.138156
v -0.947322 -0.124947 -0.333246
v -0.890417 -0.124947 -0.520840
v -0.798007 -0.124947 -0.693726
v -0.673644 -0.124947 -0.845263
v -0.522107 -0.124947 -0.969626
v -0.349220 -0.124947 -1.062036
v -0.161627 -0.124947 -1.118941
v 0.033463 1.875053 -0.138156
v 0.244099 -0.098299 -1.170189
v 0.049009 1.901701 -0.189404
v 0.431692 -0.098299 -1.113284
v 1.008590 -0.098299 -0.536385
v 0.084711 1.901701 -0.153702
v 1.065496 -0.098299 -0.348792
v 0.906330 -0.098299 0.451388
v 0.074861 1.901701 -0.104182
v 0.781968 -0.098299 0.602925
v 0.028214 -0.098299 0.915140
v 0.028214 1.901701 -0.084860
v -0.166877 -0.098299 0.895925
v -0.715042 -0.098299 0.602925
v -0.007935 1.901701 -0.104182
v -0.839404 -0.098299 0.451388
v -1.000618 -0.098299 0.062183
v -0.019833 1.901701 -0.132907
v -1.019833 -0.098299 -0.132907
v -0.707618 -0.098299 -0.886661
v -0.000511 1.901701 -0.179554
v -0.556081 -0.098299 -1.011023
v -0.508880 0.570513 -0.565200
v -0.753388 -0.017622 -0.663913
v -0.596939 0.589548 -0.195401
v -0.899832 -0.028105 -0.323800
v -0.430084 0.871575 -0.330163
v -0.845878 -0.028530 -0.502391
v -0.699199 -0.020224 -0.731983
v -0.546784 0.362000 -0.617901
v -0.914967 -0.038355 -0.222164
v -0.704047 0.386315 -0.207798
v -0.048973 0.570771 -0.382744
v -0.293481 -0.017364 -0.546119
v -0.137032 0.589807 -0.145757
v -0.439925 -0.027847 -0.206006
v 0.029823 0.871833 -0.212369
v -0.385971 -0.028271 -0.384597
v -0.239292 -0.019966 -0.614189
v -0.086877 0.362258 -0.500106
v -0.455060 -0.038097 -0.104370
v -0.244140 0.386573 -0.090004
vn 0.0878 0.4455 -0.8910
vn -0.8473 0.4465 -0.2878
vn 0.4220 0.4455 -0.7896
vn 0.5680 0.4455 -0.6921
vn 0.6921 0.4455 -0.5680
vn 0.7896 0.4455 -0.4220
vn -0.2944 -0.3145 0.9024
vn 0.8910 0.4455 -0.0878
vn 0.8910 0.4455 0.0878
vn 0.8567 0.4455 0.2599
vn 0.7896 0.4455 0.4220
vn -0.8816 0.4399 -0.1709
vn 0.5680 0.4455 0.6921
vn 0.4220 0.4455 0.7896
vn 0.2599 0.4455 0.8567
vn 0.0878 0.4455 0.8910
vn 0.2472 -0.0901 -0.9648
vn -0.2599 0.4455 0.8567
vn -0.4220 0.4455 0.7896
vn -0.5680 0.4455 0.6921
vn 0.1631 -0.4159 -0.8947
vn -0.7896 0.4455 0.4220
vn -0.8567 0.4455 0.2599
vn 0.0077 0.9995 -0.0321
vn -0.8858 0.4450 -0.1318
vn -0.8567 0.4455 -0.2599
vn -0.7896 0.4455 -0.4220
vn -0.5296 0.4341 -0.7288
vn -0.4220 0.4455 -0.7896
vn -0.0000 -1.0000 -0.0000
vn -0.2599 0.4455 -0.8567
vn -0.0878 0.4455 -0.8910
vn 0.2599 0.4455 -0.8567
vn -0.9617 0.0392 -0.2713
vn 0.9504 0.0392 0.3087
vn 0.1293 -0.8953 -0.4263
vn 0.8567 0.4455 -0.2599
vn -0.3087 0.0392 -0.9504
vn 0.2713 0.0392 0.9617
vn 0.4263 -0.8953 -0.1293
vn 0.6921 0.4455 0.5680
vn 0.6187 0.0392 -0.7847
vn -0.6489 0.0392 0.7599
vn 0.3444 -0.8953 0.2826
vn -0.0878 0.4455 0.8910
vn 0.9961 0.0392 0.0785
vn -0.9923 0.0392 -0.1174
vn -0.0437 -0.8953 0.4433
vn -0.6921 0.4455 0.5680
vn 0.6489 0.0392 0.7599
vn -0.6187 0.0392 -0.7847
vn -0.3444 -0.8953 0.2826
vn -0.8910 0.4455 0.0878
vn 0.1174 0.0392 0.9923
vn -0.0785 0.0392 -0.9961
vn -0.4433 -0.8953 0.0437
vn -0.5680 0.4455 -0.6921
vn -0.7599 0.0392 0.6489
vn 0.7847 0.0392 -0.6187
vn -0.2826 -0.8953 -0.3444
vn -0.8910 0.4455 -0.0878
vn -0.6921 0.4455 -0.5680
vn -0.0155 0.9982 0.0585
vn 0.1757 -0.1955 -0.9648
vn -0.2436 -0.1869 0.9517
vn -0.2706 -0.4879 0.8299
vn -0.0000 1.0000 -0.0024
vn -0.0253 0.9950 0.0966
vt 0.750000 0.490000
vt 0.250000 0.490000
vt 0.796822 0.485388
vt 0.296822 0.485388
vt 0.841844 0.471731
vt 0.341844 0.471731
vt 0.383337 0.449553
vt 0.883337 0.449553
vt 0.419706 0.419706
vt 0.919706 0.419706
vt 0.449553 0.383337
vt 0.949553 0.383337
vt 0.971731 0.341844
vt 0.471731 0.341844
vt 0.985388 0.296822
vt 0.485388 0.296822
vt 0.490000 0.250000
vt 0.990000 0.250000
vt 0.485388 0.203178
vt 0.985388 0.203178
vt 0.471731 0.158156
vt 0.971731 0.158156
vt 0.949553 0.116663
vt 0.449553 0.116663
vt 0.919706 0.080294
vt 0.419706 0.080294
vt 0.383337 0.050447
vt 0.883337 0.050447
vt 0.341844 0.028269
vt 0.841844 0.028269
vt 0.296822 0.014612
vt 0.796822 0.014612
vt 0.750000 0.010000
vt 0.250000 0.010000
vt 0.703178 0.014612
vt 0.203178 0.014612
vt 0.158156 0.028269
vt 0.658156 0.028269
vt 0.116663 0.050447
vt 0.616663 0.050447
vt 0.580294 0.080294
vt 0.080294 0.080294
vt 0.550447 0.116663
vt 0.050447 0.116663
vt 0.028269 0.158156
vt 0.528269 0.158156
vt 0.514612 0.203178
vt 0.014612 0.203178
vt 0.510000 0.250000
vt 0.010000 0.250000
vt 0.014612 0.296822
vt 0.514612 0.296822
vt 0.028269 0.341844
vt 0.528269 0.341844
vt 0.050447 0.383337
vt 0.550447 0.383337
vt 0.580294 0.419706
vt 0.080294 0.419706
vt 0.616663 0.449553
vt 0.116663 0.449553
vt 0.658156 0.471731
vt 0.158156 0.471731
vt 0.703178 0.485388
vt 0.203178 0.485388
vt 0.250000 0.250000
vt 0.296822 0.485388
vt 0.250000 0.250000
vt 0.341844 0.471731
vt 0.471731 0.341844
vt 0.250000 0.250000
vt 0.485388 0.296822
vt 0.449553 0.116663
vt 0.250000 0.250000
vt 0.419706 0.080294
vt 0.250000 0.010000
vt 0.250000 0.250000
vt 0.203178 0.014612
vt 0.080294 0.080294
vt 0.250000 0.250000
vt 0.050447 0.116663
vt 0.014612 0.203178
vt 0.250000 0.250000
vt 0.010000 0.250000
vt 0.080294 0.419706
vt 0.250000 0.250000
vt 0.116663 0.449553
vt 0.119838 0.336972
vt 0.061156 0.376182
vt 0.098704 0.280095
vt 0.026009 0.294555
vt 0.138749 0.296082
vt 0.038958 0.337416
vt 0.074161 0.392519
vt 0.110741 0.365139
vt 0.022377 0.270162
vt 0.072998 0.266714
vt 0.119838 0.336972
vt 0.061156 0.376182
vt 0.098704 0.280095
vt 0.026009 0.294555
vt 0.138749 0.296082
vt 0.038958 0.337416
vt 0.074161 0.392519
vt 0.110741 0.365139
vt 0.022377 0.270162
vt 0.072998 0.266714
s 0
f 1/2/1 33/65/1 2/4/1
f 55/87/2 59/91/2 33/65/2
f 3/6/3 33/65/3 4/7/3
f 4/7/4 33/65/4 5/9/4
f 5/9/5 33/65/5 6/11/5
f 6/11/6 33/65/6 7/14/6
f 55/87/7 62/94/7 72/104/7 65/97/7
f 8/16/8 33/65/8 9/17/8
f 9/17/9 33/65/9 10/19/9
f 10/19/10 33/65/10 11/21/10
f 11/21/11 33/65/11 12/24/11
f 59/91/12 57/89/12 33/65/12
f 13/26/13 33/65/13 14/27/13
f 14/27/14 33/65/14 15/29/14
f 15/29/15 33/65/15 16/31/15
f 16/31/16 33/65/16 17/34/16
f 63/95/17 64/96/17 74/106/17 73/105/17
f 18/36/18 33/65/18 19/37/18
f 19/37/19 33/65/19 20/39/19
f 20/39/20 33/65/20 21/42/20
f 57/89/21 59/91/21 69/101/21 67/99/21
f 22/44/22 33/65/22 23/45/22
f 23/45/23 33/65/23 24/48/23
f 61/93/24 56/88/24 66/98/24 71/103/24
f 25/50/25 33/65/25 57/89/25 64/96/25 63/95/25 58/90/25 26/51/25
f 26/51/26 58/90/26 60/92/26 27/53/26
f 27/53/27 60/92/27 56/88/27 28/55/27
f 28/55/28 56/88/28 61/93/28 62/94/28 55/87/28 33/65/28 29/58/28
f 66/98/27 70/102/27 69/101/27 65/97/27
f 30/60/29 33/65/29 31/62/29
f 1/1/30 2/3/30 3/5/30 4/8/30 5/10/30 6/12/30 7/13/30 8/15/30 9/18/30 10/20/30 11/22/30 12/23/30 13/25/30 14/28/30 15/30/30 16/32/30 17/33/30 18/35/30 19/38/30 20/40/30 21/41/30 22/43/30 23/46/30 24/47/30 25/49/30 26/52/30 27/54/30 28/56/30 29/57/30 30/59/30 31/61/30 32/63/30
f 31/62/31 33/65/31 32/64/31
f 32/64/32 33/65/32 1/2/32
f 34/66/33 35/67/33 36/68/33
f 33/65/34 35/67/34 34/66/34 2/4/34
f 3/6/35 36/68/35 35/67/35 33/65/35
f 2/4/36 34/66/36 36/68/36 3/6/36
f 37/69/37 38/70/37 39/71/37
f 33/65/38 38/70/38 37/69/38 7/14/38
f 8/16/39 39/71/39 38/70/39 33/65/39
f 7/14/40 37/69/40 39/71/40 8/16/40
f 40/72/41 41/73/41 42/74/41
f 33/65/42 41/73/42 40/72/42 12/24/42
f 13/26/43 42/74/43 41/73/43 33/65/43
f 12/24/44 40/72/44 42/74/44 13/26/44
f 43/75/45 44/76/45 45/77/45
f 33/65/46 44/76/46 43/75/46 17/34/46
f 18/36/47 45/77/47 44/76/47 33/65/47
f 17/34/48 43/75/48 45/77/48 18/36/48
f 46/78/49 47/79/49 48/80/49
f 33/65/50 47/79/50 46/78/50 21/42/50
f 22/44/51 48/80/51 47/79/51 33/65/51
f 21/42/52 46/78/52 48/80/52 22/44/52
f 49/81/53 50/82/53 51/83/53
f 33/65/54 50/82/54 49/81/54 24/48/54
f 25/50/55 51/83/55 50/82/55 33/65/55
f 24/48/56 49/81/56 51/83/56 25/50/56
f 52/84/57 53/85/57 54/86/57
f 33/65/58 53/85/58 52/84/58 29/58/58
f 30/60/59 54/86/59 53/85/59 33/65/59
f 29/58/60 52/84/60 54/86/60 30/60/60
f 70/102/26 68/100/26 67/99/26 69/101/26
f 68/100/61 73/105/61 74/106/61 67/99/61
f 65/97/62 72/104/62 71/103/62 66/98/62
f 56/88/63 60/92/63 70/102/63 66/98/63
f 64/96/64 57/89/64 67/99/64 74/106/64
f 62/94/65 61/93/65 71/103/65 72/104/65
f 59/91/66 55/87/66 65/97/66 69/101/66
f 60/92/67 58/90/67 68/100/67 70/102/67
f 58/90/68 63/95/68 73/105/68 68/100/68
