# Blender 3.3.1
# www.blender.org
mtllib Mine.mtl
o Icosphere
v 0.276388 0.447220 0.850649
v -0.723607 0.447220 0.525725
v -0.723607 0.447220 -0.525725
v 0.276388 0.447220 -0.850649
v 0.894426 0.447216 0.000000
v 0.000000 1.000000 0.000000
v 0.951058 0.000000 0.309013
v 0.951058 0.000000 -0.309013
v 0.000000 0.000000 1.000000
v 0.587786 0.000000 0.809017
v -0.951058 0.000000 0.309013
v -0.587786 0.000000 0.809017
v -0.587786 0.000000 -0.809017
v -0.951058 0.000000 -0.309013
v 0.587786 0.000000 -0.809017
v 0.000000 0.000000 -1.000000
v 0.688189 0.525736 0.499997
v -0.262869 0.525738 0.809012
v -0.850648 0.525736 0.000000
v -0.262869 0.525738 -0.809012
v 0.688189 0.525736 -0.499997
v 0.162456 0.850654 0.499995
v 0.525730 0.850652 0.000000
v -0.425323 0.850654 0.309011
v -0.425323 0.850654 -0.309011
v 0.162456 0.850654 -0.499995
v 0.590301 -0.074582 0.482092
v 0.278904 0.372637 0.523724
v 0.002516 -0.074582 0.673075
v -0.260353 0.451155 0.482087
v -0.585270 -0.074582 0.482092
v 0.415654 -0.041990 0.383034
v 0.197672 0.271070 0.412177
v 0.004196 -0.041990 0.516725
v -0.179815 0.326034 0.383031
v -0.407261 -0.041990 0.383034
v 0.454439 0.007884 -0.624111
v 0.236456 0.320944 -0.594967
v 0.042981 0.007884 -0.490420
v -0.141031 0.375907 -0.624114
v -0.368477 0.007884 -0.624111
vn 0.4089 0.6617 0.6284
vn -0.4713 0.6617 0.5831
vn -0.7002 0.6617 -0.2680
vn 0.0385 0.6617 -0.7488
vn 0.7240 0.6617 -0.1947
vn 0.2680 0.9435 -0.1947
vn 0.4911 0.7947 -0.3568
vn 0.4089 0.6617 -0.6284
vn -0.1024 0.9435 -0.3151
vn -0.1876 0.7947 -0.5773
vn -0.4713 0.6617 -0.5831
vn -0.3313 0.9435 -0.0000
vn -0.6071 0.7947 -0.0000
vn -0.7002 0.6617 0.2680
vn -0.1024 0.9435 0.3151
vn -0.1876 0.7947 0.5773
vn 0.0385 0.6617 0.7488
vn 0.2680 0.9435 0.1947
vn 0.4911 0.7947 0.3568
vn 0.7240 0.6617 0.1947
vn 0.8897 0.3304 -0.3151
vn 0.7947 0.1876 -0.5773
vn 0.5746 0.3304 -0.7488
vn -0.0247 0.3304 -0.9435
vn -0.3035 0.1876 -0.9342
vn -0.5346 0.3304 -0.7779
vn -0.9050 0.3304 -0.2680
vn -0.9822 0.1876 -0.0000
vn -0.9050 0.3304 0.2680
vn -0.5346 0.3304 0.7779
vn 0.8439 -0.5216 0.1255
vn -0.1571 -0.9631 0.2185
vn 0.5746 0.3304 0.7488
vn 0.7947 0.1876 0.5773
vn 0.8897 0.3304 0.3151
vn 0.3066 0.1256 -0.9435
vn -0.8026 0.1256 -0.5831
vn -0.8026 0.1256 0.5831
vn -0.8087 -0.5748 0.1249
vn 0.9921 0.1256 -0.0000
vn 0.5050 -0.3121 0.8048
vn -0.5056 -0.4221 0.7525
vn -0.1538 -0.6723 0.7241
vn -0.0723 0.9723 -0.2224
vn 0.0719 0.9725 -0.2213
vn -0.0159 0.9987 0.0488
vn 0.0163 0.9986 0.0501
vn 0.8506 -0.5257 0.0067
vn 0.0664 0.9767 0.2043
vn -0.0659 0.9770 0.2029
vn -0.3035 0.1876 0.9342
vn -0.0247 0.3304 0.9435
vn 0.3066 0.1256 0.9435
vn -0.1398 -0.9887 -0.0543
vn -0.8218 -0.5667 -0.0597
vt 0.181819 0.314921
vt 0.000000 0.314921
vt 0.909091 0.314921
vt 0.727273 0.314921
vt 0.545455 0.314921
vt 0.363637 0.314921
vt 0.454546 0.472382
vt 0.636364 0.472382
vt 0.818182 0.472382
vt 0.090910 0.472382
vt 0.272728 0.472382
vt 0.318182 0.236191
vt 0.409092 0.236191
vt 0.000000 0.000000
vt 0.227273 0.236191
vt 0.000000 0.000000
vt 0.863636 0.236191
vt 0.045455 0.236191
vt 0.954545 0.236191
vt 0.000000 0.000000
vt 0.681818 0.236191
vt 0.772727 0.236191
vt 0.500000 0.236191
vt 0.590909 0.236191
vt 0.272728 0.314921
vt 0.090910 0.314921
vt 0.818182 0.314921
vt 0.636364 0.314921
vt 0.454546 0.314921
vt 0.136365 0.393651
vt 0.227273 0.393651
vt 0.409092 0.393651
vt 0.318182 0.393651
vt 0.863636 0.393651
vt 0.045455 0.393651
vt 0.681818 0.393651
vt 0.772727 0.393651
vt 0.500000 0.393651
vt 0.590909 0.393651
vt 0.227273 0.236191
vt 0.000000 0.000000
vt 0.181819 0.314921
vt 0.000000 0.000000
vt 0.090910 0.314921
vt 0.045455 0.236191
vt 0.000000 0.000000
vt 0.000000 0.000000
vt 0.227273 0.236191
vt 0.181819 0.314921
vt 0.000000 0.000000
vt 0.090910 0.314921
vt 0.045455 0.236191
vt 0.000000 0.000000
vt 0.000000 0.000000
vt 0.227273 0.236191
vt 0.181819 0.314921
vt 0.000000 0.000000
vt 0.136365 0.236191
vt 0.090910 0.314921
vt 0.000000 0.000000
vt 0.045455 0.236191
s 0
f 1/1/1 17/25/1 22/31/1
f 2/2/2 18/26/2 24/35/2
f 3/4/3 19/27/3 25/37/3
f 4/5/4 20/28/4 26/39/4
f 5/6/5 21/29/5 23/32/5
f 23/32/6 26/38/6 6/7/6
f 23/32/7 21/29/7 26/38/7
f 21/29/8 4/5/8 26/38/8
f 26/39/9 25/36/9 6/8/9
f 26/39/10 20/28/10 25/36/10
f 20/28/11 3/4/11 25/36/11
f 25/37/12 24/34/12 6/9/12
f 25/37/13 19/27/13 24/34/13
f 19/27/14 2/3/14 24/34/14
f 24/35/15 22/30/15 6/10/15
f 24/35/16 18/26/16 22/30/16
f 18/26/17 1/1/17 22/30/17
f 22/31/18 23/33/18 6/11/18
f 22/31/19 17/25/19 23/33/19
f 17/25/20 5/6/20 23/33/20
f 8/13/21 21/29/21 5/6/21
f 8/13/22 15/23/22 21/29/22
f 15/23/23 4/5/23 21/29/23
f 16/24/24 20/28/24 4/5/24
f 16/24/25 13/21/25 20/28/25
f 13/21/26 3/4/26 20/28/26
f 14/22/27 19/27/27 3/4/27
f 14/22/28 11/17/28 19/27/28
f 11/17/29 2/3/29 19/27/29
f 12/18/30 18/26/30 2/2/30
f 18/26/31 12/18/31 31/45/31 30/44/31
f 1/1/32 18/26/32 30/44/32 28/42/32
f 10/15/33 17/25/33 1/1/33
f 10/15/34 7/12/34 17/25/34
f 7/12/35 5/6/35 17/25/35
f 15/23/36 16/24/36 4/5/36
f 13/21/37 14/22/37 3/4/37
f 11/17/38 12/19/38 2/3/38
f 10/15/39 1/1/39 28/42/39 27/40/39
f 7/12/40 8/13/40 5/6/40
f 30/44/41 31/45/41 36/52/41 35/51/41
f 27/40/42 28/42/42 33/49/42 32/48/42
f 28/42/43 30/44/43 35/51/43 33/49/43
f 9/14/44 10/16/44 27/41/44 29/43/44
f 12/20/45 9/14/45 29/43/45 31/46/45
f 36/53/46 34/50/46 39/57/46 41/60/46
f 34/50/47 32/47/47 37/54/47 39/57/47
f 35/51/48 36/52/48 41/61/48 40/59/48
f 29/43/49 27/41/49 32/47/49 34/50/49
f 31/46/50 29/43/50 34/50/50 36/53/50
f 41/61/51 39/58/51 40/59/51
f 39/58/52 38/56/52 40/59/52
f 39/58/53 37/55/53 38/56/53
f 33/49/54 35/51/54 40/59/54 38/56/54
f 32/48/55 33/49/55 38/56/55 37/55/55
